<?xml version="1.0" encoding="UTF-8"?><svg id="a" xmlns="http://www.w3.org/2000/svg" viewBox="0 0 60.37 136.39"><defs><style>.b{stroke:#fff;stroke-miterlimit:10;stroke-width:3px;}</style></defs><path class="b" d="M55.35,117.35h-.07l-6.36-3.04,2.71-2.68c.5-.73-.14-1.63-1.16-1.63h-1.8c-7.62-17.77-9.86-32.85-9.45-45.1h4.41v-7.91h-3.74c2.15-15.87,8.58-25.7,11.04-28.96,.21-.24,.41-.48,.62-.72,.12-.17,.23-.33,.35-.5-.93-.99-2.4-1.63-4.04-1.63-.86,0-1.72,.18-2.47,.52-.61,.28-1.11,.68-1.53,1.12-2.35-4.03-7.26-6.86-13-7.09h.03c.09-.02,.17-.04,.26-.06,.03,0,.06-.01,.08-.02,.09-.02,.19-.05,.28-.08,.03,0,.05-.02,.08-.03,.07-.03,.14-.05,.21-.08,.03-.01,.05-.02,.08-.03,.08-.04,.16-.08,.24-.12,.03-.02,.06-.03,.09-.05,.06-.03,.12-.07,.17-.11,.03-.02,.06-.04,.09-.06,.06-.04,.12-.09,.18-.13,.03-.02,.06-.05,.09-.07,.05-.04,.1-.09,.14-.13,.04-.03,.07-.07,.11-.11,.04-.04,.07-.08,.11-.12,.03-.03,.05-.06,.08-.09l.02-.02h0c.37-.47,.59-1.03,.59-1.63,0-1.67-1.65-3.02-3.69-3.02h-.06c-2.04,0-3.69,1.35-3.69,3.02,0,.6,.22,1.16,.59,1.63h0l.02,.02s.05,.06,.08,.09c.04,.04,.07,.08,.11,.12,.03,.04,.07,.07,.11,.11,.05,.04,.09,.09,.14,.13,.03,.02,.06,.05,.09,.07,.06,.05,.12,.09,.18,.13,.03,.02,.06,.04,.09,.06,.06,.04,.12,.07,.17,.11,.03,.02,.06,.03,.09,.05,.08,.04,.16,.08,.24,.12,.03,.01,.05,.02,.08,.03,.07,.03,.14,.06,.21,.08,.03,0,.05,.02,.08,.03,.09,.03,.18,.06,.28,.08,.03,0,.06,.01,.08,.02,.09,.02,.17,.04,.26,.05h.03c-5.75,.24-10.66,3.07-13,7.1-.43-.45-.92-.85-1.53-1.12-.75-.34-1.61-.52-2.47-.52-1.65,0-3.11,.64-4.04,1.63,.12,.16,.23,.33,.35,.5,.21,.24,.42,.48,.62,.72,2.46,3.26,8.89,13.09,11.04,28.96h-3.75v7.91h4.42c.41,12.25-1.83,27.34-9.45,45.1h-1.8c-1.02,0-1.67,.9-1.16,1.63l2.71,2.68-6.36,3.04h-.07v9.91H1.86v7.39H58.29v-7.39h-2.94v-9.91Z"/></svg>