<?xml version="1.0" encoding="UTF-8"?><svg id="a" xmlns="http://www.w3.org/2000/svg" viewBox="0 0 61.26 137.28"><defs><style>.b{fill:#fff;stroke:#000;stroke-miterlimit:10;stroke-width:2px;}</style></defs><path class="b" d="M55.64,127.64v-9.91h-.07l-6.69-3.2c-.14-.08-.31-.08-.48-.12l-6.58-25.08h2.16v-8.01h-2.55v-6.86c2.5-2.23,3.96-5.17,3.96-8.28,0-6.75-6.72-12.24-14.97-12.24s-14.96,5.5-14.96,12.24c0,3.11,1.44,6.06,3.96,8.29v6.85h-2.55v8.01h2.16l-6.58,25.04c-.21,.03-.42,.05-.6,.15l-6.73,3.2h-.03v9.91H2.16v7.39H58.57v-7.39h-2.93Z"/></svg>