<?xml version="1.0" encoding="UTF-8"?><svg id="a" xmlns="http://www.w3.org/2000/svg" viewBox="0 0 60.37 137.28"><defs><style>.b{fill:#fff;stroke:#000;stroke-miterlimit:10;stroke-width:2px;}</style></defs><path class="b" d="M55.52,117.72h-.06l-6.71-3.2c-.12-.07-.29-.07-.43-.11l-6.83-49.05h2.31v-8.01h-3.34c-.24-1.32-.63-3.94-.63-7.53,0-8.82,4.62-14.26,4.67-14.29l.68-.64h3.08v-8.01h-7v-7.15h-7.82v-5.9l6.25,.91V7.72l-6.81,.91,1.05-5.57h-7.37l1.05,5.57-6.81-.91v7.03l6.25-.91v5.9h-7.82v7.15h-7v8.01h3.09l.67,.64s4.67,5.48,4.67,14.29c0,3.59-.39,6.21-.63,7.53h-3.34v8.01h2.31l-6.83,49.05c-.14,.04-.31,.04-.43,.11l-6.74,3.2h-.02v9.91H2.04v7.39H58.46v-7.39h-2.94v-9.91Z"/></svg>