<?xml version="1.0" encoding="UTF-8"?><svg id="a" xmlns="http://www.w3.org/2000/svg" viewBox="0 0 60.82 137.28"><defs><style>.b{fill:#fff;stroke:#000;stroke-miterlimit:10;stroke-width:2px;}</style></defs><path class="b" d="M58.59,127.64v7.39H2.17v-7.39h2.94v-9.92h.02l6.74-3.2c.13-.08,.3-.08,.45-.12l6.77-37.09h-2.27v-8h2.55v-7.16h2.75c-2.48-2.13-4.07-5.18-4.07-8.58,0-2.95,2.1-7.34,4.71-10.96l3.56,7.86c.28,.62,1.13,.93,1.89,.7,.76-.23,1.15-.92,.87-1.55l-4.32-9.53c.87-.97,1.75-1.81,2.59-2.45-1.23-.76-2.04-1.95-2.04-3.31,0-2.28,2.27-4.15,5.07-4.15s5.06,1.87,5.06,4.15c0,1.36-.81,2.54-2.04,3.31,4.19,3.21,9.3,11.33,9.3,15.92,0,3.4-1.58,6.46-4.07,8.58h2.75v7.16h2.56v8h-2.28l6.77,37.09c.17,.04,.34,.04,.47,.12l6.69,3.2h.07v9.92h2.93Z"/></svg>