<?xml version="1.0" encoding="UTF-8"?><svg id="a" xmlns="http://www.w3.org/2000/svg" viewBox="0 0 84.12 137.28"><defs><style>.b{fill:#fff;stroke:#000;stroke-miterlimit:10;stroke-width:2px;}</style></defs><path class="b" d="M46.78,35.25c-.88-1.31-1.83-1.93-2.91-1.93s-1.57,.58-1.91,1.61c-3.86,.03-7.15,.58-10.32,1.73l-1.35,.5,2.63,4.83c-2.72,1.19-5.18,2.9-8.16,4.98l-4.27,2.97c-4.06,2.82-7.89,5.48-11.23,7.94-4.09,2.99-5.09,4.5-5.38,5.95-.01,.11-.18,.3-.35,.5-.55,.66-1.4,1.67-1.12,3.61,.64,4.56,4.29,6.53,7.45,6.35,.84,.42,1.86,.63,3.05,.63,2.76,0,6.1-1.21,7.44-2.56,.58-.08,1.24-.15,1.98-.24,1.7-.2,3.77-.44,5.9-.81,1.85,.93,4.01,1.41,6.42,1.41s4.7-.5,6.2-1.04c.04,.17,.03,.34-.09,.45l-.37,.33c-9.42,8.54-14.98,15.24-16.54,19.9-4.06,12.24,4.89,17.82,7.5,18.64h2.86v3.31h-4.1c-.31,0-.6,.08-.85,.23l-6.74,3.2h-.02v9.91h-2.94v7.39h56.43v-7.39h-2.94v-9.91h-.06l-6.71-3.2c-.24-.15-.54-.23-.85-.23h-4.1v-3.23h1.02l.28-.09c.24-.08,4.7-1.68,6.62-5.13h7.9l.02-1.2c.2-10.25,1.05-18.46,1.36-19.99,1.55-7.68,1.04-16.93-1.35-24.74-4.93-16.03-19.51-23.12-30.4-24.66Z"/></svg>