<?xml version="1.0" encoding="utf-8"?>
<!-- Generator: Adobe Illustrator 22.0.1, SVG Export Plug-In . SVG Version: 6.00 Build 0)  -->
<svg version="1.1" id="layer" xmlns="http://www.w3.org/2000/svg" xmlns:xlink="http://www.w3.org/1999/xlink" x="0px" y="0px"
	 viewBox="0 0 570 470" style="enable-background:new 0 0 570 470;" xml:space="preserve">
<g>
	<path d="M532.1,306.6v-12.1H532l-6.7-3.9c-0.1-0.1-0.3-0.1-0.5-0.1l-6.6-30.6h2.2V250h-2.5v-8.4c2.5-2.7,4-6.3,4-10.1
		c0-8.2-6.7-15-15-15c-8.2,0-15,6.7-15,15c0,3.8,1.4,7.4,4,10.1v8.4h-2.5v9.8h2.2l-6.6,30.6c-0.2,0-0.4,0.1-0.6,0.2l-6.7,3.9h0v12.1
		h-2.9v9H535v-9H532.1z"/>
	<path d="M359.8,294.5L359.8,294.5l-6.8-3.9c-0.1-0.1-0.3-0.1-0.4-0.1l-6.8-59.9h2.3v-9.8h-3.3c-0.2-1.6-0.6-4.8-0.6-9.2
		c0-10.8,4.6-17.4,4.7-17.5l0.7-0.8h3.1v-9.8h-7v-8.7h-7.8v-7.2l6.3,1.1v-8.6l-6.8,1.1l1.1-6.8h-7.4l1.1,6.8l-6.8-1.1v8.6l6.3-1.1
		v7.2h-7.8v8.7h-7v9.8h3.1l0.7,0.8c0,0,4.7,6.7,4.7,17.5c0,4.4-0.4,7.6-0.6,9.2H321v9.8h2.3l-6.8,59.9c-0.1,0-0.3,0-0.4,0.1
		l-6.7,3.9h0v12.1h-2.9v9h56.4v-9h-2.9V294.5z"/>
	<path d="M447.7,294.5L447.7,294.5l-6.7-3.9c-0.6-0.7-3.5-4.8-3.6-15v-46.9h6.7v-25.1h-12.3v8.8h-3.2v-8.8h-12.3v8.8h-3.2v-8.8
		h-12.3v25.1h6.7v46.3c0,10.5-2.9,14.7-3.6,15.5l-6.7,3.9h0v12.1h-2.9v9h56.4v-9h-2.9V294.5z"/>
	<path d="M157.8,193.7c-0.9-1.6-1.8-2.4-2.9-2.4c-1.1,0-1.6,0.7-1.9,2c-3.9,0-7.1,0.7-10.3,2.1l-1.4,0.6l2.6,5.9
		c-2.7,1.5-5.2,3.5-8.2,6.1l-4.3,3.6c-4.1,3.4-7.9,6.7-11.2,9.7c-4.1,3.7-5.1,5.5-5.4,7.3c0,0.1-0.2,0.4-0.4,0.6
		c-0.6,0.8-1.4,2-1.1,4.4c0.6,5.6,4.3,8,7.4,7.8c0.8,0.5,1.9,0.8,3,0.8c2.8,0,6.1-1.5,7.4-3.1c0.6-0.1,1.2-0.2,2-0.3
		c1.7-0.2,3.8-0.5,5.9-1c1.9,1.1,4,1.7,6.4,1.7c2.4,0,4.7-0.6,6.2-1.3c0,0.2,0,0.4-0.1,0.6l-0.4,0.4c-9.4,10.4-15,18.6-16.5,24.3
		c-4.1,15,4.9,21.8,7.5,22.8l2.9,0v4h-4.1c-0.3,0-0.6,0.1-0.9,0.3l-6.7,3.9h0v12.1h-2.9v9H187v-9h-2.9v-12.1H184l-6.7-3.9
		c-0.2-0.2-0.5-0.3-0.9-0.3h-4.1v-3.9h1l0.3-0.1c0.2-0.1,4.7-2.1,6.6-6.3h7.9l0-1.5c0.2-12.5,1.1-22.6,1.4-24.4
		c1.6-9.4,1-20.7-1.4-30.2C183.3,204.3,168.7,195.6,157.8,193.7z"/>
	<path d="M91.4,306.6v9H35v-9h2.9v-12.1h0l6.7-3.9c0.1-0.1,0.3-0.1,0.5-0.1l6.8-45.3h-2.3v-9.8h2.5v-8.8h2.8
		c-2.5-2.6-4.1-6.3-4.1-10.5c0-3.6,2.1-9,4.7-13.4l3.6,9.6c0.3,0.8,1.1,1.1,1.9,0.9c0.8-0.3,1.1-1.1,0.9-1.9l-4.3-11.6
		c0.9-1.2,1.8-2.2,2.6-3c-1.2-0.9-2-2.4-2-4c0-2.8,2.3-5.1,5.1-5.1c2.8,0,5.1,2.3,5.1,5.1c0,1.7-0.8,3.1-2,4
		c4.2,3.9,9.3,13.8,9.3,19.5c0,4.2-1.6,7.9-4.1,10.5h2.8v8.8h2.6v9.8h-2.3l6.8,45.3c0.2,0,0.3,0,0.5,0.1l6.7,3.9h0.1v12.1H91.4z"/>
	<path d="M271.1,294.5L271.1,294.5l-6.4-3.7l2.7-3.3c0.5-0.9-0.1-2-1.2-2h-1.8c-7.6-21.7-9.9-40.1-9.5-55.1h4.4v-9.7h-3.7
		c2.2-19.4,8.6-31.4,11-35.4c0.2-0.3,0.4-0.6,0.6-0.9c0.1-0.2,0.2-0.4,0.3-0.6c-0.9-1.2-2.4-2-4-2c-0.9,0-1.7,0.2-2.5,0.6
		c-0.6,0.3-1.1,0.8-1.5,1.4c-2.3-4.9-7.3-8.4-13-8.7c0,0,0,0,0,0c0.1,0,0.2,0,0.3-0.1c0,0,0.1,0,0.1,0c0.1,0,0.2-0.1,0.3-0.1
		c0,0,0.1,0,0.1,0c0.1,0,0.1-0.1,0.2-0.1c0,0,0.1,0,0.1,0c0.1,0,0.2-0.1,0.2-0.1c0,0,0.1,0,0.1-0.1c0.1,0,0.1-0.1,0.2-0.1
		c0,0,0.1,0,0.1-0.1c0.1-0.1,0.1-0.1,0.2-0.2c0,0,0.1-0.1,0.1-0.1c0-0.1,0.1-0.1,0.1-0.2c0,0,0.1-0.1,0.1-0.1c0,0,0.1-0.1,0.1-0.1
		c0,0,0.1-0.1,0.1-0.1c0,0,0,0,0,0c0,0,0,0,0,0c0.4-0.6,0.6-1.3,0.6-2c0-2-1.7-3.7-3.7-3.7c0,0,0,0,0,0c0,0,0,0,0,0
		c-2,0-3.7,1.7-3.7,3.7c0,0.7,0.2,1.4,0.6,2c0,0,0,0,0,0c0,0,0,0,0,0c0,0,0.1,0.1,0.1,0.1c0,0.1,0.1,0.1,0.1,0.1
		c0,0,0.1,0.1,0.1,0.1c0,0.1,0.1,0.1,0.1,0.2c0,0,0.1,0.1,0.1,0.1c0.1,0.1,0.1,0.1,0.2,0.2c0,0,0.1,0.1,0.1,0.1
		c0.1,0,0.1,0.1,0.2,0.1c0,0,0.1,0,0.1,0.1c0.1,0.1,0.2,0.1,0.2,0.1c0,0,0.1,0,0.1,0c0.1,0,0.1,0.1,0.2,0.1c0,0,0.1,0,0.1,0
		c0.1,0,0.2,0.1,0.3,0.1c0,0,0.1,0,0.1,0c0.1,0,0.2,0,0.3,0.1c0,0,0,0,0,0c-5.7,0.3-10.7,3.7-13,8.7c-0.4-0.5-0.9-1-1.5-1.4
		c-0.8-0.4-1.6-0.6-2.5-0.6c-1.6,0-3.1,0.8-4,2c0.1,0.2,0.2,0.4,0.3,0.6c0.2,0.3,0.4,0.6,0.6,0.9c2.5,4,8.9,16,11,35.4h-3.7v9.7h4.4
		c0.4,15-1.8,33.4-9.5,55.1h-1.8c-1,0-1.7,1.1-1.2,2l2.7,3.3l-6.4,3.7h-0.1v12.1h-2.9v9h28.2H274v-9h-2.9V294.5z"/>
</g>
</svg>
